<?xml version="1.0" encoding="UTF-8" standalone="no"?>
<!DOCTYPE svg PUBLIC "-//W3C//DTD SVG 1.1//EN" "http://www.w3.org/Graphics/SVG/1.1/DTD/svg11.dtd">
<svg width="100%" height="100%" viewBox="0 0 561 199" version="1.1" xmlns="http://www.w3.org/2000/svg" xmlns:xlink="http://www.w3.org/1999/xlink" xml:space="preserve" xmlns:serif="http://www.serif.com/" style="fill-rule:evenodd;clip-rule:evenodd;">
    <g transform="matrix(1,0,0,1,-1.19034,-6.025e-05)">
        <g transform="matrix(1,0,0,1,-13.1012,-71.1176)">
            <g transform="matrix(1,0,0,1,98.2775,66.9575)">
                <g>
                    <rect x="85.128" y="81.067" width="45.933" height="25.902" style="fill:rgb(103,33,70);fill-opacity:0.76;stroke:black;stroke-width:0.51px;"/>
                </g>
            </g>
        </g>
        <g transform="matrix(1,0,0,1,-13.1012,-71.1176)">
            <g transform="matrix(1,0,0,1,189.114,163.876)">
                <g>
                    <text x="0px" y="0px" style="font-family:'ArialMT', 'Arial';font-size:12px;fill:white;">HCPro</text>
                </g>
            </g>
        </g>
        <g transform="matrix(1,0,0,1,-13.1012,-71.1176)">
            <g transform="matrix(1,0,0,1,65.2773,7.777)">
                <g>
                    <rect x="253.963" y="81.066" width="32.6" height="25.904" style="fill:rgb(103,33,70);fill-opacity:0.76;stroke:black;stroke-width:0.43px;"/>
                </g>
            </g>
        </g>
        <g transform="matrix(1,0,0,1,-13.1012,-71.1176)">
            <g transform="matrix(1,0,0,1,65.2773,7.777)">
                <g>
                    <path d="M85.128,81.066L85.128,106.97L47.607,106.97C44.916,106.97 42.734,104.788 42.734,102.097L42.734,85.851C42.734,83.208 44.876,81.066 47.519,81.066L85.128,81.066Z" style="fill:rgb(103,33,70);fill-opacity:0.76;stroke:black;stroke-width:0.49px;"/>
                </g>
            </g>
        </g>
        <g transform="matrix(1,0,0,1,-13.1012,-71.1176)">
            <g transform="matrix(1,0,0,1,65.2773,7.777)">
                <g>
                    <rect x="180.156" y="81.067" width="63.495" height="25.902" style="fill:rgb(103,33,70);fill-opacity:0.76;stroke:black;stroke-width:0.61px;"/>
                </g>
            </g>
        </g>
        <g transform="matrix(1,0,0,1,-13.1012,-71.1176)">
            <g transform="matrix(1,0,0,1,65.2773,7.777)">
                <g>
                    <rect x="287.155" y="81.067" width="48" height="25.902" style="fill:rgb(103,33,70);fill-opacity:0.76;stroke:black;stroke-width:0.53px;"/>
                </g>
            </g>
        </g>
        <g transform="matrix(1,0,0,1,-13.1012,-71.1176)">
            <g transform="matrix(1,0,0,1,65.2773,7.777)">
                <g>
                    <rect x="169.844" y="81.067" width="10.312" height="25.902" style="fill:rgb(103,33,70);fill-opacity:0.76;stroke:black;stroke-width:0.24px;"/>
                </g>
            </g>
        </g>
        <g transform="matrix(1,0,0,1,-13.1012,-71.1176)">
            <g transform="matrix(1,0,0,1,65.2773,7.777)">
                <g>
                    <rect x="243.651" y="81.067" width="10.313" height="25.902" style="fill:rgb(103,33,70);fill-opacity:0.76;stroke:black;stroke-width:0.24px;"/>
                </g>
            </g>
        </g>
        <g transform="matrix(1,0,0,1,-13.1012,-71.1176)">
            <g transform="matrix(1,0,0,1,65.2773,7.777)">
                <g>
                    <rect x="335.332" y="81.066" width="96.002" height="25.904" style="fill:rgb(103,33,70);fill-opacity:0.76;stroke:black;stroke-width:0.74px;"/>
                </g>
            </g>
        </g>
        <g transform="matrix(1,0,0,1,-13.1012,-71.1176)">
            <g transform="matrix(1,0,0,1,65.2773,7.777)">
                <g>
                    <path d="M468.669,81.067C471.997,81.067 474.694,83.764 474.694,87.092L474.694,101.787C474.694,104.649 472.374,106.969 469.512,106.969L431.333,106.969L431.333,81.067L468.669,81.067Z" style="fill:rgb(103,33,70);fill-opacity:0.76;stroke:black;stroke-width:0.5px;"/>
                </g>
            </g>
        </g>
        <g transform="matrix(1,0,0,1,-13.1012,-71.1176)">
            <g transform="matrix(1,0,0,1,65.2773,7.777)">
                <g>
                    <rect x="131.061" y="81.066" width="38.783" height="25.904" style="fill:rgb(103,33,70);fill-opacity:0.76;stroke:black;stroke-width:0.47px;"/>
                </g>
            </g>
        </g>
        <g transform="matrix(1,0,0,1,-13.1012,-71.1176)">
            <g transform="matrix(0.262634,0,0,0.262634,229.953,71.1177)">
                <g>
                    <rect x="0" y="0" width="71.875" height="71.877" style="fill:none;"/>
                    <g transform="matrix(0.0467209,0,0,0.0467245,0.529789,0.529809)">
                        <path d="M1208,744C1156,744 1112,701 1112,648C1112,596 1156,552 1208,552C1261,552 1304,596 1304,648C1304,701 1261,744 1208,744ZM836,402C786,383 764,327 783,277C802,228 858,205 908,224C957,244 980,300 960,349C941,397 885,421 836,402ZM792,776C765,776 744,756 744,728C744,701 765,680 792,680C820,680 840,701 840,728C840,756 820,776 792,776ZM1208,456C1167,456 1128,469 1096,492L941,578L1028,423C1036,410 1044,397 1050,383C1090,285 1042,173 944,133C847,93 735,141 695,239C655,336 703,448 800,488C820,496 839,500 858,501L714,645L679,724L216,984L120,1144L584,936L376,1400L536,1304L794,844L872,808L1016,664C1024,764 1108,840 1208,840C1314,840 1400,754 1400,648C1400,543 1314,456 1208,456Z" style="fill-rule:nonzero;"/>
                    </g>
                </g>
            </g>
        </g>
        <g transform="matrix(1,0,0,1,-13.1012,-71.1176)">
            <g transform="matrix(0.262634,0,0,0.262634,301.954,71.1177)">
                <g>
                    <rect x="0" y="0" width="71.875" height="71.877" style="fill:none;"/>
                    <g transform="matrix(0.0467209,0,0,0.0467245,0.529789,0.529809)">
                        <path d="M1208,744C1156,744 1112,701 1112,648C1112,596 1156,552 1208,552C1261,552 1304,596 1304,648C1304,701 1261,744 1208,744ZM836,402C786,383 764,327 783,277C802,228 858,205 908,224C957,244 980,300 960,349C941,397 885,421 836,402ZM792,776C765,776 744,756 744,728C744,701 765,680 792,680C820,680 840,701 840,728C840,756 820,776 792,776ZM1208,456C1167,456 1128,469 1096,492L941,578L1028,423C1036,410 1044,397 1050,383C1090,285 1042,173 944,133C847,93 735,141 695,239C655,336 703,448 800,488C820,496 839,500 858,501L714,645L679,724L216,984L120,1144L584,936L376,1400L536,1304L794,844L872,808L1016,664C1024,764 1108,840 1208,840C1314,840 1400,754 1400,648C1400,543 1314,456 1208,456Z" style="fill-rule:nonzero;"/>
                    </g>
                </g>
            </g>
        </g>
        <g transform="matrix(1,0,0,1,-13.1012,-71.1176)">
            <g transform="matrix(0.262634,0,0,0.262634,240.954,72.1177)">
                <g>
                    <rect x="0" y="0" width="71.875" height="71.877" style="fill:none;"/>
                    <g transform="matrix(0.0467209,0,0,0.0467245,0.529789,0.529809)">
                        <path d="M1208,744C1156,744 1112,701 1112,648C1112,596 1156,552 1208,552C1261,552 1304,596 1304,648C1304,701 1261,744 1208,744ZM836,402C786,383 764,327 783,277C802,228 858,205 908,224C957,244 980,300 960,349C941,397 885,421 836,402ZM792,776C765,776 744,756 744,728C744,701 765,680 792,680C820,680 840,701 840,728C840,756 820,776 792,776ZM1208,456C1167,456 1128,469 1096,492L941,578L1028,423C1036,410 1044,397 1050,383C1090,285 1042,173 944,133C847,93 735,141 695,239C655,336 703,448 800,488C820,496 839,500 858,501L714,645L679,724L216,984L120,1144L584,936L376,1400L536,1304L794,844L872,808L1016,664C1024,764 1108,840 1208,840C1314,840 1400,754 1400,648C1400,543 1314,456 1208,456Z" style="fill-rule:nonzero;"/>
                    </g>
                </g>
            </g>
        </g>
        <g transform="matrix(1,0,0,1,-13.1012,-71.1176)">
            <g transform="matrix(0.262634,0,0,0.262634,312.954,72.1177)">
                <g>
                    <rect x="0" y="0" width="71.875" height="71.877" style="fill:none;"/>
                    <g transform="matrix(0.0467209,0,0,0.0467245,0.529789,0.529809)">
                        <path d="M1208,744C1156,744 1112,701 1112,648C1112,596 1156,552 1208,552C1261,552 1304,596 1304,648C1304,701 1261,744 1208,744ZM836,402C786,383 764,327 783,277C802,228 858,205 908,224C957,244 980,300 960,349C941,397 885,421 836,402ZM792,776C765,776 744,756 744,728C744,701 765,680 792,680C820,680 840,701 840,728C840,756 820,776 792,776ZM1208,456C1167,456 1128,469 1096,492L941,578L1028,423C1036,410 1044,397 1050,383C1090,285 1042,173 944,133C847,93 735,141 695,239C655,336 703,448 800,488C820,496 839,500 858,501L714,645L679,724L216,984L120,1144L584,936L376,1400L536,1304L794,844L872,808L1016,664C1024,764 1108,840 1208,840C1314,840 1400,754 1400,648C1400,543 1314,456 1208,456Z" style="fill-rule:nonzero;"/>
                    </g>
                </g>
            </g>
        </g>
        <g transform="matrix(1,0,0,1,-13.1012,-71.1176)">
            <g transform="matrix(0.262634,0,0,0.262634,345.953,72.1177)">
                <g>
                    <rect x="0" y="0" width="71.875" height="71.877" style="fill:none;"/>
                    <g transform="matrix(0.0467209,0,0,0.0467245,0.529789,0.529809)">
                        <path d="M1208,744C1156,744 1112,701 1112,648C1112,596 1156,552 1208,552C1261,552 1304,596 1304,648C1304,701 1261,744 1208,744ZM836,402C786,383 764,327 783,277C802,228 858,205 908,224C957,244 980,300 960,349C941,397 885,421 836,402ZM792,776C765,776 744,756 744,728C744,701 765,680 792,680C820,680 840,701 840,728C840,756 820,776 792,776ZM1208,456C1167,456 1128,469 1096,492L941,578L1028,423C1036,410 1044,397 1050,383C1090,285 1042,173 944,133C847,93 735,141 695,239C655,336 703,448 800,488C820,496 839,500 858,501L714,645L679,724L216,984L120,1144L584,936L376,1400L536,1304L794,844L872,808L1016,664C1024,764 1108,840 1208,840C1314,840 1400,754 1400,648C1400,543 1314,456 1208,456Z" style="fill-rule:nonzero;"/>
                    </g>
                </g>
            </g>
        </g>
        <g transform="matrix(1,0,0,1,-13.1012,-71.1176)">
            <g transform="matrix(0.262634,0,0,0.262634,393.955,72.1177)">
                <g>
                    <rect x="0" y="0" width="71.875" height="71.877" style="fill:none;"/>
                    <g transform="matrix(0.0467209,0,0,0.0467245,0.529789,0.529809)">
                        <path d="M1208,744C1156,744 1112,701 1112,648C1112,596 1156,552 1208,552C1261,552 1304,596 1304,648C1304,701 1261,744 1208,744ZM836,402C786,383 764,327 783,277C802,228 858,205 908,224C957,244 980,300 960,349C941,397 885,421 836,402ZM792,776C765,776 744,756 744,728C744,701 765,680 792,680C820,680 840,701 840,728C840,756 820,776 792,776ZM1208,456C1167,456 1128,469 1096,492L941,578L1028,423C1036,410 1044,397 1050,383C1090,285 1042,173 944,133C847,93 735,141 695,239C655,336 703,448 800,488C820,496 839,500 858,501L714,645L679,724L216,984L120,1144L584,936L376,1400L536,1304L794,844L872,808L1016,664C1024,764 1108,840 1208,840C1314,840 1400,754 1400,648C1400,543 1314,456 1208,456Z" style="fill-rule:nonzero;"/>
                    </g>
                </g>
            </g>
        </g>
        <g transform="matrix(1,0,0,1,-13.1012,-71.1176)">
            <g transform="matrix(0.262634,0,0,0.262634,490.954,72.1177)">
                <g>
                    <rect x="0" y="0" width="71.875" height="71.877" style="fill:none;"/>
                    <g transform="matrix(0.0467209,0,0,0.0467245,0.529789,0.529809)">
                        <path d="M1208,744C1156,744 1112,701 1112,648C1112,596 1156,552 1208,552C1261,552 1304,596 1304,648C1304,701 1261,744 1208,744ZM836,402C786,383 764,327 783,277C802,228 858,205 908,224C957,244 980,300 960,349C941,397 885,421 836,402ZM792,776C765,776 744,756 744,728C744,701 765,680 792,680C820,680 840,701 840,728C840,756 820,776 792,776ZM1208,456C1167,456 1128,469 1096,492L941,578L1028,423C1036,410 1044,397 1050,383C1090,285 1042,173 944,133C847,93 735,141 695,239C655,336 703,448 800,488C820,496 839,500 858,501L714,645L679,724L216,984L120,1144L584,936L376,1400L536,1304L794,844L872,808L1016,664C1024,764 1108,840 1208,840C1314,840 1400,754 1400,648C1400,543 1314,456 1208,456Z" style="fill-rule:nonzero;"/>
                    </g>
                </g>
            </g>
        </g>
        <g transform="matrix(1,0,0,1,-13.1012,-71.1176)">
            <g transform="matrix(1,0,0,1,65.2773,7.777)">
                <g>
                    <rect x="85.128" y="81.067" width="45.933" height="25.902" style="fill:rgb(103,33,70);fill-opacity:0.76;stroke:black;stroke-width:0.51px;"/>
                </g>
            </g>
        </g>
        <g transform="matrix(1,0,0,1,-13.1012,-71.1176)">
            <g transform="matrix(1,0,0,1,121.87,104.696)">
                <g>
                    <text x="0px" y="0px" style="font-family:'ArialMT', 'Arial';font-size:12px;fill:white;">P1</text>
                </g>
            </g>
        </g>
        <g transform="matrix(1,0,0,1,-13.1012,-71.1176)">
            <g transform="matrix(1,0,0,1,156.113,104.696)">
                <g>
                    <text x="0px" y="0px" style="font-family:'ArialMT', 'Arial';font-size:12px;fill:white;">HCPro</text>
                </g>
            </g>
        </g>
        <g transform="matrix(1,0,0,1,-13.1012,-71.1176)">
            <g transform="matrix(1,0,0,1,208.703,104.696)">
                <g>
                    <text x="0px" y="0px" style="font-family:'ArialMT', 'Arial';font-size:12px;fill:white;">P3</text>
                </g>
            </g>
        </g>
        <g transform="matrix(1,0,0,1,-13.1012,-71.1176)">
            <g transform="matrix(1,0,0,1,273.655,104.696)">
                <g>
                    <text x="0px" y="0px" style="font-family:'ArialMT', 'Arial';font-size:12px;fill:white;">CI</text>
                </g>
            </g>
        </g>
        <g transform="matrix(1,0,0,1,-13.1012,-71.1176)">
            <g transform="matrix(1,0,0,1,324.216,104.696)">
                <g>
                    <text x="0px" y="0px" style="font-family:'ArialMT', 'Arial';font-size:12px;fill:white;">VPg</text>
                </g>
            </g>
        </g>
        <g transform="matrix(1,0,0,1,-13.1012,-71.1176)">
            <g transform="matrix(1,0,0,1,367.182,104.696)">
                <g>
                    <text x="0px" y="0px" style="font-family:'ArialMT', 'Arial';font-size:12px;fill:white;">NIa</text>
                </g>
            </g>
        </g>
        <g transform="matrix(1,0,0,1,-13.1012,-71.1176)">
            <g transform="matrix(1,0,0,1,421.256,104.696)">
                <g>
                    <text x="0px" y="0px" style="font-family:'ArialMT', 'Arial';font-size:12px;fill:white;">NIb RdRp</text>
                </g>
            </g>
        </g>
        <g transform="matrix(1,0,0,1,-13.1012,-71.1176)">
            <g transform="matrix(1,0,0,1,510.603,104.696)">
                <g>
                    <text x="0px" y="0px" style="font-family:'ArialMT', 'Arial';font-size:12px;fill:white;">Cp</text>
                </g>
            </g>
        </g>
        <g transform="matrix(1,0,0,1,-13.1012,-71.1176)">
            <g transform="matrix(6.12326e-17,1,-1,6.12325e-17,235.818,91.7898)">
                <g>
                    <text x="0px" y="0px" style="font-family:'ArialMT', 'Arial';font-size:12px;fill:white;">6K1</text>
                </g>
            </g>
        </g>
        <g transform="matrix(1,0,0,1,-13.1012,-71.1176)">
            <g transform="matrix(6.12326e-17,1,-1,6.12325e-17,310.032,91.7898)">
                <g>
                    <text x="0px" y="0px" style="font-family:'ArialMT', 'Arial';font-size:12px;fill:white;">6K2</text>
                </g>
            </g>
        </g>
        <g transform="matrix(1,0,0,1,-13.1012,-71.1176)">
            <g transform="matrix(1,0,0,1,60.7773,129.2)">
                <g>
                    <rect x="253.963" y="81.066" width="32.6" height="25.904" style="fill:rgb(103,33,70);fill-opacity:0.76;stroke:black;stroke-width:0.43px;"/>
                </g>
            </g>
        </g>
        <g transform="matrix(1,0,0,1,-13.1012,-71.1176)">
            <g transform="matrix(1,0,0,1,69.7773,129.2)">
                <g>
                    <path d="M85.128,81.066L85.128,106.97L47.607,106.97C44.916,106.97 42.734,104.788 42.734,102.097L42.734,85.851C42.734,83.208 44.876,81.066 47.519,81.066L85.128,81.066Z" style="fill:rgb(103,33,70);fill-opacity:0.76;stroke:black;stroke-width:0.49px;"/>
                </g>
            </g>
        </g>
        <g transform="matrix(1,0,0,1,-13.1012,-71.1176)">
            <g transform="matrix(1,0,0,1,60.7773,129.2)">
                <g>
                    <rect x="180.156" y="81.067" width="63.495" height="25.902" style="fill:rgb(103,33,70);fill-opacity:0.76;stroke:black;stroke-width:0.61px;"/>
                </g>
            </g>
        </g>
        <g transform="matrix(1,0,0,1,-13.1012,-71.1176)">
            <g transform="matrix(1,0,0,1,60.7773,129.2)">
                <g>
                    <rect x="287.155" y="81.067" width="48" height="25.902" style="fill:rgb(103,33,70);fill-opacity:0.76;stroke:black;stroke-width:0.53px;"/>
                </g>
            </g>
        </g>
        <g transform="matrix(1,0,0,1,-13.1012,-71.1176)">
            <g transform="matrix(1,0,0,1,60.7773,129.2)">
                <g>
                    <rect x="169.844" y="81.067" width="10.312" height="25.902" style="fill:rgb(103,33,70);fill-opacity:0.76;stroke:black;stroke-width:0.24px;"/>
                </g>
            </g>
        </g>
        <g transform="matrix(1,0,0,1,-13.1012,-71.1176)">
            <g transform="matrix(1,0,0,1,60.7773,129.2)">
                <g>
                    <rect x="243.651" y="81.067" width="10.313" height="25.902" style="fill:rgb(103,33,70);fill-opacity:0.76;stroke:black;stroke-width:0.24px;"/>
                </g>
            </g>
        </g>
        <g transform="matrix(1,0,0,1,-13.1012,-71.1176)">
            <g transform="matrix(1,0,0,1,60.7773,129.2)">
                <g>
                    <rect x="335.332" y="81.066" width="96.002" height="25.904" style="fill:rgb(103,33,70);fill-opacity:0.76;stroke:black;stroke-width:0.74px;"/>
                </g>
            </g>
        </g>
        <g transform="matrix(1,0,0,1,-13.1012,-71.1176)">
            <g transform="matrix(1,0,0,1,60.7773,129.2)">
                <g>
                    <path d="M468.669,81.067C471.997,81.067 474.694,83.764 474.694,87.092L474.694,101.787C474.694,104.649 472.374,106.969 469.512,106.969L431.333,106.969L431.333,81.067L468.669,81.067Z" style="fill:rgb(103,33,70);fill-opacity:0.76;stroke:black;stroke-width:0.5px;"/>
                </g>
            </g>
        </g>
        <g transform="matrix(1,0,0,1,-13.1012,-71.1176)">
            <g transform="matrix(1,0,0,1,60.7773,129.2)">
                <g>
                    <rect x="131.061" y="81.066" width="38.783" height="25.904" style="fill:rgb(103,33,70);fill-opacity:0.76;stroke:black;stroke-width:0.47px;"/>
                </g>
            </g>
        </g>
        <g transform="matrix(1,0,0,1,-13.1012,-71.1176)">
            <g transform="matrix(0.262634,0,0,0.262634,225.453,192.54)">
                <g>
                    <rect x="0" y="0" width="71.875" height="71.877" style="fill:none;"/>
                    <g transform="matrix(0.0467209,0,0,0.0467245,0.529789,0.529809)">
                        <path d="M1208,744C1156,744 1112,701 1112,648C1112,596 1156,552 1208,552C1261,552 1304,596 1304,648C1304,701 1261,744 1208,744ZM836,402C786,383 764,327 783,277C802,228 858,205 908,224C957,244 980,300 960,349C941,397 885,421 836,402ZM792,776C765,776 744,756 744,728C744,701 765,680 792,680C820,680 840,701 840,728C840,756 820,776 792,776ZM1208,456C1167,456 1128,469 1096,492L941,578L1028,423C1036,410 1044,397 1050,383C1090,285 1042,173 944,133C847,93 735,141 695,239C655,336 703,448 800,488C820,496 839,500 858,501L714,645L679,724L216,984L120,1144L584,936L376,1400L536,1304L794,844L872,808L1016,664C1024,764 1108,840 1208,840C1314,840 1400,754 1400,648C1400,543 1314,456 1208,456Z" style="fill-rule:nonzero;"/>
                    </g>
                </g>
            </g>
        </g>
        <g transform="matrix(1,0,0,1,-13.1012,-71.1176)">
            <g transform="matrix(0.262634,0,0,0.262634,297.454,192.54)">
                <g>
                    <rect x="0" y="0" width="71.875" height="71.877" style="fill:none;"/>
                    <g transform="matrix(0.0467209,0,0,0.0467245,0.529789,0.529809)">
                        <path d="M1208,744C1156,744 1112,701 1112,648C1112,596 1156,552 1208,552C1261,552 1304,596 1304,648C1304,701 1261,744 1208,744ZM836,402C786,383 764,327 783,277C802,228 858,205 908,224C957,244 980,300 960,349C941,397 885,421 836,402ZM792,776C765,776 744,756 744,728C744,701 765,680 792,680C820,680 840,701 840,728C840,756 820,776 792,776ZM1208,456C1167,456 1128,469 1096,492L941,578L1028,423C1036,410 1044,397 1050,383C1090,285 1042,173 944,133C847,93 735,141 695,239C655,336 703,448 800,488C820,496 839,500 858,501L714,645L679,724L216,984L120,1144L584,936L376,1400L536,1304L794,844L872,808L1016,664C1024,764 1108,840 1208,840C1314,840 1400,754 1400,648C1400,543 1314,456 1208,456Z" style="fill-rule:nonzero;"/>
                    </g>
                </g>
            </g>
        </g>
        <g transform="matrix(1,0,0,1,-13.1012,-71.1176)">
            <g transform="matrix(0.262634,0,0,0.262634,185.43,192.88)">
                <g>
                    <rect x="0" y="0" width="71.875" height="71.877" style="fill:none;"/>
                    <g transform="matrix(0.0467209,0,0,0.0467245,0.529789,0.529809)">
                        <path d="M1208,744C1156,744 1112,701 1112,648C1112,596 1156,552 1208,552C1261,552 1304,596 1304,648C1304,701 1261,744 1208,744ZM836,402C786,383 764,327 783,277C802,228 858,205 908,224C957,244 980,300 960,349C941,397 885,421 836,402ZM792,776C765,776 744,756 744,728C744,701 765,680 792,680C820,680 840,701 840,728C840,756 820,776 792,776ZM1208,456C1167,456 1128,469 1096,492L941,578L1028,423C1036,410 1044,397 1050,383C1090,285 1042,173 944,133C847,93 735,141 695,239C655,336 703,448 800,488C820,496 839,500 858,501L714,645L679,724L216,984L120,1144L584,936L376,1400L536,1304L794,844L872,808L1016,664C1024,764 1108,840 1208,840C1314,840 1400,754 1400,648C1400,543 1314,456 1208,456Z" style="fill-rule:nonzero;"/>
                    </g>
                </g>
            </g>
        </g>
        <g transform="matrix(1,0,0,1,-13.1012,-71.1176)">
            <g transform="matrix(0.262634,0,0,0.262634,177.43,129.88)">
                <g>
                    <rect x="0" y="0" width="71.875" height="71.877" style="fill:none;"/>
                    <g transform="matrix(0.0467209,0,0,0.0467245,0.529789,0.529809)">
                        <path d="M1208,744C1156,744 1112,701 1112,648C1112,596 1156,552 1208,552C1261,552 1304,596 1304,648C1304,701 1261,744 1208,744ZM836,402C786,383 764,327 783,277C802,228 858,205 908,224C957,244 980,300 960,349C941,397 885,421 836,402ZM792,776C765,776 744,756 744,728C744,701 765,680 792,680C820,680 840,701 840,728C840,756 820,776 792,776ZM1208,456C1167,456 1128,469 1096,492L941,578L1028,423C1036,410 1044,397 1050,383C1090,285 1042,173 944,133C847,93 735,141 695,239C655,336 703,448 800,488C820,496 839,500 858,501L714,645L679,724L216,984L120,1144L584,936L376,1400L536,1304L794,844L872,808L1016,664C1024,764 1108,840 1208,840C1314,840 1400,754 1400,648C1400,543 1314,456 1208,456Z" style="fill-rule:nonzero;"/>
                    </g>
                </g>
            </g>
        </g>
        <g transform="matrix(1,0,0,1,-13.1012,-71.1176)">
            <g transform="matrix(0.262634,0,0,0.262634,146.24,192.282)">
                <g>
                    <rect x="0" y="0" width="71.875" height="71.877" style="fill:none;"/>
                    <g transform="matrix(0.0467209,0,0,0.0467245,0.529789,0.529809)">
                        <path d="M1208,744C1156,744 1112,701 1112,648C1112,596 1156,552 1208,552C1261,552 1304,596 1304,648C1304,701 1261,744 1208,744ZM836,402C786,383 764,327 783,277C802,228 858,205 908,224C957,244 980,300 960,349C941,397 885,421 836,402ZM792,776C765,776 744,756 744,728C744,701 765,680 792,680C820,680 840,701 840,728C840,756 820,776 792,776ZM1208,456C1167,456 1128,469 1096,492L941,578L1028,423C1036,410 1044,397 1050,383C1090,285 1042,173 944,133C847,93 735,141 695,239C655,336 703,448 800,488C820,496 839,500 858,501L714,645L679,724L216,984L120,1144L584,936L376,1400L536,1304L794,844L872,808L1016,664C1024,764 1108,840 1208,840C1314,840 1400,754 1400,648C1400,543 1314,456 1208,456Z" style="fill-rule:nonzero;"/>
                    </g>
                </g>
            </g>
        </g>
        <g transform="matrix(1,0,0,1,-13.1012,-71.1176)">
            <g transform="matrix(0.262634,0,0,0.262634,236.454,193.541)">
                <g>
                    <rect x="0" y="0" width="71.875" height="71.877" style="fill:none;"/>
                    <g transform="matrix(0.0467209,0,0,0.0467245,0.529789,0.529809)">
                        <path d="M1208,744C1156,744 1112,701 1112,648C1112,596 1156,552 1208,552C1261,552 1304,596 1304,648C1304,701 1261,744 1208,744ZM836,402C786,383 764,327 783,277C802,228 858,205 908,224C957,244 980,300 960,349C941,397 885,421 836,402ZM792,776C765,776 744,756 744,728C744,701 765,680 792,680C820,680 840,701 840,728C840,756 820,776 792,776ZM1208,456C1167,456 1128,469 1096,492L941,578L1028,423C1036,410 1044,397 1050,383C1090,285 1042,173 944,133C847,93 735,141 695,239C655,336 703,448 800,488C820,496 839,500 858,501L714,645L679,724L216,984L120,1144L584,936L376,1400L536,1304L794,844L872,808L1016,664C1024,764 1108,840 1208,840C1314,840 1400,754 1400,648C1400,543 1314,456 1208,456Z" style="fill-rule:nonzero;"/>
                    </g>
                </g>
            </g>
        </g>
        <g transform="matrix(1,0,0,1,-13.1012,-71.1176)">
            <g transform="matrix(0.262634,0,0,0.262634,308.454,193.541)">
                <g>
                    <rect x="0" y="0" width="71.875" height="71.877" style="fill:none;"/>
                    <g transform="matrix(0.0467209,0,0,0.0467245,0.529789,0.529809)">
                        <path d="M1208,744C1156,744 1112,701 1112,648C1112,596 1156,552 1208,552C1261,552 1304,596 1304,648C1304,701 1261,744 1208,744ZM836,402C786,383 764,327 783,277C802,228 858,205 908,224C957,244 980,300 960,349C941,397 885,421 836,402ZM792,776C765,776 744,756 744,728C744,701 765,680 792,680C820,680 840,701 840,728C840,756 820,776 792,776ZM1208,456C1167,456 1128,469 1096,492L941,578L1028,423C1036,410 1044,397 1050,383C1090,285 1042,173 944,133C847,93 735,141 695,239C655,336 703,448 800,488C820,496 839,500 858,501L714,645L679,724L216,984L120,1144L584,936L376,1400L536,1304L794,844L872,808L1016,664C1024,764 1108,840 1208,840C1314,840 1400,754 1400,648C1400,543 1314,456 1208,456Z" style="fill-rule:nonzero;"/>
                    </g>
                </g>
            </g>
        </g>
        <g transform="matrix(1,0,0,1,-13.1012,-71.1176)">
            <g transform="matrix(0.262634,0,0,0.262634,341.454,193.541)">
                <g>
                    <rect x="0" y="0" width="71.875" height="71.877" style="fill:none;"/>
                    <g transform="matrix(0.0467209,0,0,0.0467245,0.529789,0.529809)">
                        <path d="M1208,744C1156,744 1112,701 1112,648C1112,596 1156,552 1208,552C1261,552 1304,596 1304,648C1304,701 1261,744 1208,744ZM836,402C786,383 764,327 783,277C802,228 858,205 908,224C957,244 980,300 960,349C941,397 885,421 836,402ZM792,776C765,776 744,756 744,728C744,701 765,680 792,680C820,680 840,701 840,728C840,756 820,776 792,776ZM1208,456C1167,456 1128,469 1096,492L941,578L1028,423C1036,410 1044,397 1050,383C1090,285 1042,173 944,133C847,93 735,141 695,239C655,336 703,448 800,488C820,496 839,500 858,501L714,645L679,724L216,984L120,1144L584,936L376,1400L536,1304L794,844L872,808L1016,664C1024,764 1108,840 1208,840C1314,840 1400,754 1400,648C1400,543 1314,456 1208,456Z" style="fill-rule:nonzero;"/>
                    </g>
                </g>
            </g>
        </g>
        <g transform="matrix(1,0,0,1,-13.1012,-71.1176)">
            <g transform="matrix(0.262634,0,0,0.262634,389.454,193.541)">
                <g>
                    <rect x="0" y="0" width="71.875" height="71.877" style="fill:none;"/>
                    <g transform="matrix(0.0467209,0,0,0.0467245,0.529789,0.529809)">
                        <path d="M1208,744C1156,744 1112,701 1112,648C1112,596 1156,552 1208,552C1261,552 1304,596 1304,648C1304,701 1261,744 1208,744ZM836,402C786,383 764,327 783,277C802,228 858,205 908,224C957,244 980,300 960,349C941,397 885,421 836,402ZM792,776C765,776 744,756 744,728C744,701 765,680 792,680C820,680 840,701 840,728C840,756 820,776 792,776ZM1208,456C1167,456 1128,469 1096,492L941,578L1028,423C1036,410 1044,397 1050,383C1090,285 1042,173 944,133C847,93 735,141 695,239C655,336 703,448 800,488C820,496 839,500 858,501L714,645L679,724L216,984L120,1144L584,936L376,1400L536,1304L794,844L872,808L1016,664C1024,764 1108,840 1208,840C1314,840 1400,754 1400,648C1400,543 1314,456 1208,456Z" style="fill-rule:nonzero;"/>
                    </g>
                </g>
            </g>
        </g>
        <g transform="matrix(1,0,0,1,-13.1012,-71.1176)">
            <g transform="matrix(0.262634,0,0,0.262634,486.454,193.541)">
                <g>
                    <rect x="0" y="0" width="71.875" height="71.877" style="fill:none;"/>
                    <g transform="matrix(0.0467209,0,0,0.0467245,0.529789,0.529809)">
                        <path d="M1208,744C1156,744 1112,701 1112,648C1112,596 1156,552 1208,552C1261,552 1304,596 1304,648C1304,701 1261,744 1208,744ZM836,402C786,383 764,327 783,277C802,228 858,205 908,224C957,244 980,300 960,349C941,397 885,421 836,402ZM792,776C765,776 744,756 744,728C744,701 765,680 792,680C820,680 840,701 840,728C840,756 820,776 792,776ZM1208,456C1167,456 1128,469 1096,492L941,578L1028,423C1036,410 1044,397 1050,383C1090,285 1042,173 944,133C847,93 735,141 695,239C655,336 703,448 800,488C820,496 839,500 858,501L714,645L679,724L216,984L120,1144L584,936L376,1400L536,1304L794,844L872,808L1016,664C1024,764 1108,840 1208,840C1314,840 1400,754 1400,648C1400,543 1314,456 1208,456Z" style="fill-rule:nonzero;"/>
                    </g>
                </g>
            </g>
        </g>
        <g transform="matrix(1,0,0,1,-13.1012,-71.1176)">
            <g transform="matrix(0.801251,0,0,1,86.8261,129.2)">
                <g>
                    <rect x="85.128" y="81.067" width="45.933" height="25.902" style="fill:rgb(37,152,168);fill-opacity:0.76;stroke:rgb(19,1,0);stroke-opacity:0.76;stroke-width:0.51px;"/>
                </g>
            </g>
        </g>
        <g transform="matrix(1,0,0,1,-13.1012,-71.1176)">
            <g transform="matrix(1,0,0,1,126.369,226.119)">
                <g>
                    <text x="0px" y="0px" style="font-family:'ArialMT', 'Arial';font-size:12px;fill:white;">P1</text>
                </g>
            </g>
        </g>
        <g transform="matrix(1,0,0,1,-13.1012,-71.1176)">
            <g transform="matrix(1,0,0,1,160.807,226.119)">
                <g>
                    <text x="0px" y="0px" style="font-family:'ArialMT', 'Arial';font-size:12px;fill:white;">GFP</text>
                </g>
            </g>
        </g>
        <g transform="matrix(1,0,0,1,-13.1012,-71.1176)">
            <g transform="matrix(1,0,0,1,204.203,226.119)">
                <g>
                    <text x="0px" y="0px" style="font-family:'ArialMT', 'Arial';font-size:12px;fill:white;">P3</text>
                </g>
            </g>
        </g>
        <g transform="matrix(1,0,0,1,-13.1012,-71.1176)">
            <g transform="matrix(1,0,0,1,269.155,226.119)">
                <g>
                    <text x="0px" y="0px" style="font-family:'ArialMT', 'Arial';font-size:12px;fill:white;">CI</text>
                </g>
            </g>
        </g>
        <g transform="matrix(1,0,0,1,-13.1012,-71.1176)">
            <g transform="matrix(1,0,0,1,319.716,226.119)">
                <g>
                    <text x="0px" y="0px" style="font-family:'ArialMT', 'Arial';font-size:12px;fill:white;">VPg</text>
                </g>
            </g>
        </g>
        <g transform="matrix(1,0,0,1,-13.1012,-71.1176)">
            <g transform="matrix(1,0,0,1,362.682,226.119)">
                <g>
                    <text x="0px" y="0px" style="font-family:'ArialMT', 'Arial';font-size:12px;fill:white;">NIa</text>
                </g>
            </g>
        </g>
        <g transform="matrix(1,0,0,1,-13.1012,-71.1176)">
            <g transform="matrix(1,0,0,1,416.756,226.119)">
                <g>
                    <text x="0px" y="0px" style="font-family:'ArialMT', 'Arial';font-size:12px;fill:white;">NIb RdRp</text>
                </g>
            </g>
        </g>
        <g transform="matrix(1,0,0,1,-13.1012,-71.1176)">
            <g transform="matrix(1,0,0,1,506.103,226.119)">
                <g>
                    <text x="0px" y="0px" style="font-family:'ArialMT', 'Arial';font-size:12px;fill:white;">Cp</text>
                </g>
            </g>
        </g>
        <g transform="matrix(1,0,0,1,-13.1012,-71.1176)">
            <g transform="matrix(6.12326e-17,1,-1,6.12325e-17,231.318,213.212)">
                <g>
                    <text x="0px" y="0px" style="font-family:'ArialMT', 'Arial';font-size:12px;fill:white;">6K1</text>
                </g>
            </g>
        </g>
        <g transform="matrix(1,0,0,1,-13.1012,-71.1176)">
            <g transform="matrix(6.12326e-17,1,-1,6.12325e-17,305.532,213.212)">
                <g>
                    <text x="0px" y="0px" style="font-family:'ArialMT', 'Arial';font-size:12px;fill:white;">6K2</text>
                </g>
            </g>
        </g>
        <g transform="matrix(1,0,0,1,-13.1012,-71.1176)">
            <g transform="matrix(0.262634,0,0,0.262634,263.453,130.298)">
                <g>
                    <rect x="0" y="0" width="71.875" height="71.877" style="fill:none;"/>
                    <g transform="matrix(0.0467209,0,0,0.0467245,0.529789,0.529809)">
                        <path d="M1208,744C1156,744 1112,701 1112,648C1112,596 1156,552 1208,552C1261,552 1304,596 1304,648C1304,701 1261,744 1208,744ZM836,402C786,383 764,327 783,277C802,228 858,205 908,224C957,244 980,300 960,349C941,397 885,421 836,402ZM792,776C765,776 744,756 744,728C744,701 765,680 792,680C820,680 840,701 840,728C840,756 820,776 792,776ZM1208,456C1167,456 1128,469 1096,492L941,578L1028,423C1036,410 1044,397 1050,383C1090,285 1042,173 944,133C847,93 735,141 695,239C655,336 703,448 800,488C820,496 839,500 858,501L714,645L679,724L216,984L120,1144L584,936L376,1400L536,1304L794,844L872,808L1016,664C1024,764 1108,840 1208,840C1314,840 1400,754 1400,648C1400,543 1314,456 1208,456Z" style="fill-rule:nonzero;"/>
                    </g>
                </g>
            </g>
        </g>
        <g transform="matrix(1,0,0,1,-13.1012,-71.1176)">
            <g transform="matrix(0.262634,0,0,0.262634,335.453,130.298)">
                <g>
                    <rect x="0" y="0" width="71.875" height="71.877" style="fill:none;"/>
                    <g transform="matrix(0.0467209,0,0,0.0467245,0.529789,0.529809)">
                        <path d="M1208,744C1156,744 1112,701 1112,648C1112,596 1156,552 1208,552C1261,552 1304,596 1304,648C1304,701 1261,744 1208,744ZM836,402C786,383 764,327 783,277C802,228 858,205 908,224C957,244 980,300 960,349C941,397 885,421 836,402ZM792,776C765,776 744,756 744,728C744,701 765,680 792,680C820,680 840,701 840,728C840,756 820,776 792,776ZM1208,456C1167,456 1128,469 1096,492L941,578L1028,423C1036,410 1044,397 1050,383C1090,285 1042,173 944,133C847,93 735,141 695,239C655,336 703,448 800,488C820,496 839,500 858,501L714,645L679,724L216,984L120,1144L584,936L376,1400L536,1304L794,844L872,808L1016,664C1024,764 1108,840 1208,840C1314,840 1400,754 1400,648C1400,543 1314,456 1208,456Z" style="fill-rule:nonzero;"/>
                    </g>
                </g>
            </g>
        </g>
        <g transform="matrix(1,0,0,1,-13.1012,-71.1176)">
            <g transform="matrix(0.262634,0,0,0.262634,123.24,130.039)">
                <g>
                    <rect x="0" y="0" width="71.875" height="71.877" style="fill:none;"/>
                    <g transform="matrix(0.0467209,0,0,0.0467245,0.529789,0.529809)">
                        <path d="M1208,744C1156,744 1112,701 1112,648C1112,596 1156,552 1208,552C1261,552 1304,596 1304,648C1304,701 1261,744 1208,744ZM836,402C786,383 764,327 783,277C802,228 858,205 908,224C957,244 980,300 960,349C941,397 885,421 836,402ZM792,776C765,776 744,756 744,728C744,701 765,680 792,680C820,680 840,701 840,728C840,756 820,776 792,776ZM1208,456C1167,456 1128,469 1096,492L941,578L1028,423C1036,410 1044,397 1050,383C1090,285 1042,173 944,133C847,93 735,141 695,239C655,336 703,448 800,488C820,496 839,500 858,501L714,645L679,724L216,984L120,1144L584,936L376,1400L536,1304L794,844L872,808L1016,664C1024,764 1108,840 1208,840C1314,840 1400,754 1400,648C1400,543 1314,456 1208,456Z" style="fill-rule:nonzero;"/>
                    </g>
                </g>
            </g>
        </g>
        <g transform="matrix(1,0,0,1,-13.1012,-71.1176)">
            <g transform="matrix(0.262634,0,0,0.262634,274.454,131.298)">
                <g>
                    <rect x="0" y="0" width="71.875" height="71.877" style="fill:none;"/>
                    <g transform="matrix(0.0467209,0,0,0.0467245,0.529789,0.529809)">
                        <path d="M1208,744C1156,744 1112,701 1112,648C1112,596 1156,552 1208,552C1261,552 1304,596 1304,648C1304,701 1261,744 1208,744ZM836,402C786,383 764,327 783,277C802,228 858,205 908,224C957,244 980,300 960,349C941,397 885,421 836,402ZM792,776C765,776 744,756 744,728C744,701 765,680 792,680C820,680 840,701 840,728C840,756 820,776 792,776ZM1208,456C1167,456 1128,469 1096,492L941,578L1028,423C1036,410 1044,397 1050,383C1090,285 1042,173 944,133C847,93 735,141 695,239C655,336 703,448 800,488C820,496 839,500 858,501L714,645L679,724L216,984L120,1144L584,936L376,1400L536,1304L794,844L872,808L1016,664C1024,764 1108,840 1208,840C1314,840 1400,754 1400,648C1400,543 1314,456 1208,456Z" style="fill-rule:nonzero;"/>
                    </g>
                </g>
            </g>
        </g>
        <g transform="matrix(1,0,0,1,-13.1012,-71.1176)">
            <g transform="matrix(0.262634,0,0,0.262634,346.454,131.298)">
                <g>
                    <rect x="0" y="0" width="71.875" height="71.877" style="fill:none;"/>
                    <g transform="matrix(0.0467209,0,0,0.0467245,0.529789,0.529809)">
                        <path d="M1208,744C1156,744 1112,701 1112,648C1112,596 1156,552 1208,552C1261,552 1304,596 1304,648C1304,701 1261,744 1208,744ZM836,402C786,383 764,327 783,277C802,228 858,205 908,224C957,244 980,300 960,349C941,397 885,421 836,402ZM792,776C765,776 744,756 744,728C744,701 765,680 792,680C820,680 840,701 840,728C840,756 820,776 792,776ZM1208,456C1167,456 1128,469 1096,492L941,578L1028,423C1036,410 1044,397 1050,383C1090,285 1042,173 944,133C847,93 735,141 695,239C655,336 703,448 800,488C820,496 839,500 858,501L714,645L679,724L216,984L120,1144L584,936L376,1400L536,1304L794,844L872,808L1016,664C1024,764 1108,840 1208,840C1314,840 1400,754 1400,648C1400,543 1314,456 1208,456Z" style="fill-rule:nonzero;"/>
                    </g>
                </g>
            </g>
        </g>
        <g transform="matrix(1,0,0,1,-13.1012,-71.1176)">
            <g transform="matrix(0.262634,0,0,0.262634,379.454,131.298)">
                <g>
                    <rect x="0" y="0" width="71.875" height="71.877" style="fill:none;"/>
                    <g transform="matrix(0.0467209,0,0,0.0467245,0.529789,0.529809)">
                        <path d="M1208,744C1156,744 1112,701 1112,648C1112,596 1156,552 1208,552C1261,552 1304,596 1304,648C1304,701 1261,744 1208,744ZM836,402C786,383 764,327 783,277C802,228 858,205 908,224C957,244 980,300 960,349C941,397 885,421 836,402ZM792,776C765,776 744,756 744,728C744,701 765,680 792,680C820,680 840,701 840,728C840,756 820,776 792,776ZM1208,456C1167,456 1128,469 1096,492L941,578L1028,423C1036,410 1044,397 1050,383C1090,285 1042,173 944,133C847,93 735,141 695,239C655,336 703,448 800,488C820,496 839,500 858,501L714,645L679,724L216,984L120,1144L584,936L376,1400L536,1304L794,844L872,808L1016,664C1024,764 1108,840 1208,840C1314,840 1400,754 1400,648C1400,543 1314,456 1208,456Z" style="fill-rule:nonzero;"/>
                    </g>
                </g>
            </g>
        </g>
        <g transform="matrix(1,0,0,1,-13.1012,-71.1176)">
            <g transform="matrix(0.262634,0,0,0.262634,427.454,131.298)">
                <g>
                    <rect x="0" y="0" width="71.875" height="71.877" style="fill:none;"/>
                    <g transform="matrix(0.0467209,0,0,0.0467245,0.529789,0.529809)">
                        <path d="M1208,744C1156,744 1112,701 1112,648C1112,596 1156,552 1208,552C1261,552 1304,596 1304,648C1304,701 1261,744 1208,744ZM836,402C786,383 764,327 783,277C802,228 858,205 908,224C957,244 980,300 960,349C941,397 885,421 836,402ZM792,776C765,776 744,756 744,728C744,701 765,680 792,680C820,680 840,701 840,728C840,756 820,776 792,776ZM1208,456C1167,456 1128,469 1096,492L941,578L1028,423C1036,410 1044,397 1050,383C1090,285 1042,173 944,133C847,93 735,141 695,239C655,336 703,448 800,488C820,496 839,500 858,501L714,645L679,724L216,984L120,1144L584,936L376,1400L536,1304L794,844L872,808L1016,664C1024,764 1108,840 1208,840C1314,840 1400,754 1400,648C1400,543 1314,456 1208,456Z" style="fill-rule:nonzero;"/>
                    </g>
                </g>
            </g>
        </g>
        <g transform="matrix(1,0,0,1,-13.1012,-71.1176)">
            <g transform="matrix(0.262634,0,0,0.262634,524.455,131.298)">
                <g>
                    <rect x="0" y="0" width="71.875" height="71.877" style="fill:none;"/>
                    <g transform="matrix(0.0467209,0,0,0.0467245,0.529789,0.529809)">
                        <path d="M1208,744C1156,744 1112,701 1112,648C1112,596 1156,552 1208,552C1261,552 1304,596 1304,648C1304,701 1261,744 1208,744ZM836,402C786,383 764,327 783,277C802,228 858,205 908,224C957,244 980,300 960,349C941,397 885,421 836,402ZM792,776C765,776 744,756 744,728C744,701 765,680 792,680C820,680 840,701 840,728C840,756 820,776 792,776ZM1208,456C1167,456 1128,469 1096,492L941,578L1028,423C1036,410 1044,397 1050,383C1090,285 1042,173 944,133C847,93 735,141 695,239C655,336 703,448 800,488C820,496 839,500 858,501L714,645L679,724L216,984L120,1144L584,936L376,1400L536,1304L794,844L872,808L1016,664C1024,764 1108,840 1208,840C1314,840 1400,754 1400,648C1400,543 1314,456 1208,456Z" style="fill-rule:nonzero;"/>
                    </g>
                </g>
            </g>
        </g>
        <g transform="matrix(1,0,0,1,-13.1012,-71.1176)">
            <g transform="matrix(1,0,0,1,98.7775,66.9575)">
                <g>
                    <rect x="253.963" y="81.066" width="32.6" height="25.904" style="fill:rgb(103,33,70);fill-opacity:0.76;stroke:black;stroke-width:0.43px;"/>
                </g>
            </g>
        </g>
        <g transform="matrix(1,0,0,1,-13.1012,-71.1176)">
            <g transform="matrix(1,0,0,1,46.7772,66.9575)">
                <g>
                    <path d="M85.128,81.066L85.128,106.97L47.607,106.97C44.916,106.97 42.734,104.788 42.734,102.097L42.734,85.851C42.734,83.208 44.876,81.066 47.519,81.066L85.128,81.066Z" style="fill:rgb(103,33,70);fill-opacity:0.76;stroke:black;stroke-width:0.49px;"/>
                </g>
            </g>
        </g>
        <g transform="matrix(1,0,0,1,-13.1012,-71.1176)">
            <g transform="matrix(1,0,0,1,98.7775,66.9575)">
                <g>
                    <rect x="180.156" y="81.067" width="63.495" height="25.902" style="fill:rgb(103,33,70);fill-opacity:0.76;stroke:black;stroke-width:0.61px;"/>
                </g>
            </g>
        </g>
        <g transform="matrix(1,0,0,1,-13.1012,-71.1176)">
            <g transform="matrix(1,0,0,1,98.7775,66.9575)">
                <g>
                    <rect x="287.155" y="81.067" width="48" height="25.902" style="fill:rgb(103,33,70);fill-opacity:0.76;stroke:black;stroke-width:0.53px;"/>
                </g>
            </g>
        </g>
        <g transform="matrix(1,0,0,1,-13.1012,-71.1176)">
            <g transform="matrix(1,0,0,1,98.7775,66.9575)">
                <g>
                    <rect x="169.844" y="81.067" width="10.312" height="25.902" style="fill:rgb(103,33,70);fill-opacity:0.76;stroke:black;stroke-width:0.24px;"/>
                </g>
            </g>
        </g>
        <g transform="matrix(1,0,0,1,-13.1012,-71.1176)">
            <g transform="matrix(1,0,0,1,98.7775,66.9575)">
                <g>
                    <rect x="243.651" y="81.067" width="10.313" height="25.902" style="fill:rgb(103,33,70);fill-opacity:0.76;stroke:black;stroke-width:0.24px;"/>
                </g>
            </g>
        </g>
        <g transform="matrix(1,0,0,1,-13.1012,-71.1176)">
            <g transform="matrix(1,0,0,1,98.7775,66.9575)">
                <g>
                    <rect x="335.332" y="81.066" width="96.002" height="25.904" style="fill:rgb(103,33,70);fill-opacity:0.76;stroke:black;stroke-width:0.74px;"/>
                </g>
            </g>
        </g>
        <g transform="matrix(1,0,0,1,-13.1012,-71.1176)">
            <g transform="matrix(1,0,0,1,98.7775,66.9575)">
                <g>
                    <path d="M468.669,81.067C471.997,81.067 474.694,83.764 474.694,87.092L474.694,101.787C474.694,104.649 472.374,106.969 469.512,106.969L431.333,106.969L431.333,81.067L468.669,81.067Z" style="fill:rgb(103,33,70);fill-opacity:0.76;stroke:black;stroke-width:0.5px;"/>
                </g>
            </g>
        </g>
        <g transform="matrix(1,0,0,1,-13.1012,-71.1176)">
            <g transform="matrix(1,0,0,1,98.7775,66.9575)">
                <g>
                    <rect x="131.061" y="81.066" width="38.783" height="25.904" style="fill:rgb(103,33,70);fill-opacity:0.76;stroke:black;stroke-width:0.47px;"/>
                </g>
            </g>
        </g>
        <g transform="matrix(1,0,0,1,-13.1012,-71.1176)">
            <g transform="matrix(1.12516,0,0,1,36.2523,66.9575)">
                <g>
                    <rect x="85.128" y="81.067" width="45.933" height="25.902" style="fill:rgb(37,152,168);fill-opacity:0.76;stroke:rgb(19,1,0);stroke-opacity:0.76;stroke-width:0.51px;"/>
                </g>
            </g>
        </g>
        <g transform="matrix(1,0,0,1,-13.1012,-71.1176)">
            <g transform="matrix(1,0,0,1,103.369,163.876)">
                <g>
                    <text x="0px" y="0px" style="font-family:'ArialMT', 'Arial';font-size:12px;fill:white;">P1</text>
                </g>
            </g>
        </g>
        <g transform="matrix(1,0,0,1,-13.1012,-71.1176)">
            <g transform="matrix(1,0,0,1,132.977,163.876)">
                <g>
                    <text x="0px" y="0px" style="font-family:'ArialMT', 'Arial';font-size:12px;fill:white;">6K2-GFP</text>
                </g>
            </g>
        </g>
        <g transform="matrix(1,0,0,1,-13.1012,-71.1176)">
            <g transform="matrix(1,0,0,1,242.204,163.876)">
                <g>
                    <text x="0px" y="0px" style="font-family:'ArialMT', 'Arial';font-size:12px;fill:white;">P3</text>
                </g>
            </g>
        </g>
        <g transform="matrix(1,0,0,1,-13.1012,-71.1176)">
            <g transform="matrix(1,0,0,1,307.155,163.876)">
                <g>
                    <text x="0px" y="0px" style="font-family:'ArialMT', 'Arial';font-size:12px;fill:white;">CI</text>
                </g>
            </g>
        </g>
        <g transform="matrix(1,0,0,1,-13.1012,-71.1176)">
            <g transform="matrix(1,0,0,1,357.716,163.876)">
                <g>
                    <text x="0px" y="0px" style="font-family:'ArialMT', 'Arial';font-size:12px;fill:white;">VPg</text>
                </g>
            </g>
        </g>
        <g transform="matrix(1,0,0,1,-13.1012,-71.1176)">
            <g transform="matrix(1,0,0,1,400.682,163.876)">
                <g>
                    <text x="0px" y="0px" style="font-family:'ArialMT', 'Arial';font-size:12px;fill:white;">NIa</text>
                </g>
            </g>
        </g>
        <g transform="matrix(1,0,0,1,-13.1012,-71.1176)">
            <g transform="matrix(1,0,0,1,454.756,163.876)">
                <g>
                    <text x="0px" y="0px" style="font-family:'ArialMT', 'Arial';font-size:12px;fill:white;">NIb RdRp</text>
                </g>
            </g>
        </g>
        <g transform="matrix(1,0,0,1,-13.1012,-71.1176)">
            <g transform="matrix(1,0,0,1,544.103,163.876)">
                <g>
                    <text x="0px" y="0px" style="font-family:'ArialMT', 'Arial';font-size:12px;fill:white;">Cp</text>
                </g>
            </g>
        </g>
        <g transform="matrix(1,0,0,1,-13.1012,-71.1176)">
            <g transform="matrix(6.12326e-17,1,-1,6.12325e-17,270.338,150.97)">
                <g>
                    <text x="0px" y="0px" style="font-family:'ArialMT', 'Arial';font-size:12px;fill:white;">6K1</text>
                </g>
            </g>
        </g>
        <g transform="matrix(1,0,0,1,-13.1012,-71.1176)">
            <g transform="matrix(6.12326e-17,1,-1,6.12325e-17,343.532,150.97)">
                <g>
                    <text x="0px" y="0px" style="font-family:'ArialMT', 'Arial';font-size:12px;fill:white;">6K2</text>
                </g>
            </g>
        </g>
        <g transform="matrix(1,0,0,1,-13.1012,-71.1176)">
            <g transform="matrix(1,0,0,1,13.1012,102.676)">
                <g>
                    <g>
                        <g>
                            <text x="18.694px" y="0px" style="font-family:'Arial-BoldMT', 'Arial';font-weight:700;font-size:13px;">Tu</text>
                            <text x="34.576px" y="0px" style="font-family:'ArialMT', 'Arial';font-size:13px;">rnip</text>
                            <text x="0.27px" y="13px" style="font-family:'Arial-BoldMT', 'Arial';font-weight:700;font-size:13px;">M</text>
                            <text x="11.099px" y="13px" style="font-family:'ArialMT', 'Arial';font-size:13px;">osaic</text>
                            <text x="45.059px" y="13px" style="font-family:'Arial-BoldMT', 'Arial';font-weight:700;font-size:13px;">V</text>
                            <g transform="matrix(13,0,0,13,74.6772,13)">
                            </g>
                            <text x="53.73px" y="13px" style="font-family:'ArialMT', 'Arial';font-size:13px;">irus</text>
                        </g>
                    </g>
                </g>
            </g>
        </g>
        <g transform="matrix(1,0,0,1,-13.1012,-71.1176)">
            <g transform="matrix(1,0,0,1,-530.11,105.555)">
                <g>
                    <g transform="matrix(1,0,0,1,554.669,115.15)">
                        <text x="0px" y="0px" style="font-family:'Arial-BoldMT', 'Arial';font-weight:700;font-size:13px;">HCPro</text>
                    </g>
                    <g transform="matrix(1,0,0,1,551.044,128.575)">
                        <text x="0px" y="0px" style="font-family:'ArialMT', 'Arial';font-size:13px;">Deletion</text>
                    </g>
                </g>
            </g>
        </g>
        <g transform="matrix(1,0,0,1,-13.1012,-71.1176)">
            <g transform="matrix(1,0,0,1,-530.11,43.4864)">
                <g>
                    <g transform="matrix(1,0,0,1,547.442,115.156)">
                        <text x="0px" y="0px" style="font-family:'Arial-BoldMT', 'Arial';font-weight:700;font-size:13px;">6K2</text>
                    </g>
                    <g transform="matrix(1,0,0,1,571.29,115.156)">
                        <text x="0px" y="0px" style="font-family:'ArialMT', 'Arial';font-size:13px;">-GFP</text>
                    </g>
                    <g transform="matrix(1,0,0,1,550.33,128.581)">
                        <text x="0px" y="0px" style="font-family:'ArialMT', 'Arial';font-size:13px;">Chimera</text>
                    </g>
                </g>
            </g>
        </g>
        <g transform="matrix(1,0,0,1,-13.1012,-71.1176)">
            <g transform="matrix(1,0,0,1,-49.7297,140.123)">
                <text x="548.715px" y="114.523px" style="font-family:'ArialMT', 'Arial';font-size:12.116px;">Cleavege by</text>
                <g transform="matrix(12.1164,0,0,12.1164,622.691,127.036)">
                </g>
                <text x="542.094px" y="127.036px" style="font-family:'ArialMT', 'Arial';font-size:12.116px;">V<tspan x="549.957px 552.649px " y="127.036px 127.036px ">ir</tspan>al proteases</text>
            </g>
        </g>
        <g transform="matrix(1,0,0,1,-13.1012,-71.1176)">
            <g transform="matrix(0.390023,0,0,0.390023,461.86,240.835)">
                <rect x="0" y="0" width="71.875" height="71.877" style="fill:none;fill-rule:nonzero;"/>
                <g transform="matrix(0.0467209,0,0,0.0467245,0.529789,0.529809)">
                    <path d="M1208,744C1156,744 1112,701 1112,648C1112,596 1156,552 1208,552C1261,552 1304,596 1304,648C1304,701 1261,744 1208,744ZM836,402C786,383 764,327 783,277C802,228 858,205 908,224C957,244 980,300 960,349C941,397 885,421 836,402ZM792,776C765,776 744,756 744,728C744,701 765,680 792,680C820,680 840,701 840,728C840,756 820,776 792,776ZM1208,456C1167,456 1128,469 1096,492L941,578L1028,423C1036,410 1044,397 1050,383C1090,285 1042,173 944,133C847,93 735,141 695,239C655,336 703,448 800,488C820,496 839,500 858,501L714,645L679,724L216,984L120,1144L584,936L376,1400L536,1304L794,844L872,808L1016,664C1024,764 1108,840 1208,840C1314,840 1400,754 1400,648C1400,543 1314,456 1208,456Z" style="fill-rule:nonzero;"/>
                </g>
            </g>
        </g>
    </g>
</svg>
